#N canvas 34 8 2560 1276 12;
#X msg 35 97 \; pd dsp \$1;
#X obj 35 62 tgl 15 0 empty empty empty 17 7 0 10 -204786 -1 -1 1 1
;
#X text 28 29 START/STOP DSP;
#X text 316 29 MAIN/TEMPO CONTROL;
#X obj 209 165 metro;
#X obj 209 117 tgl 15 0 empty empty empty 17 7 0 10 -204786 -1 -1 1
1;
#X text 273 59 Trigger main background music;
#X floatatom 268 147 5 0 0 0 - - -;
#X obj 270 93 loadbang;
#X obj 209 199 s tempo;
#N canvas 108 113 1240 849 synth 0;
#X obj 86 261 f;
#X obj 129 251 + 1;
#X obj 123 280 mod 64;
#X obj 598 727 inlet;
#X obj 65 231 r tempo;
#X obj 86 336 hradio 15 1 0 64 empty empty empty 0 -8 0 10 -262144
-1 -1 47;
#N canvas 0 50 450 250 (subpatch) 0;
#X array synthpitches 64 float 3;
#A 0 73 75 70 78 75 73 0 75 72 0 72 68 0 72 73 68 71 63 66 71 63 66
71 63 66 73 65 68 73 66 70 78 77 75 70 78 75 73 0 75 72 0 72 68 0 72
73 68 71 63 66 71 63 66 71 63 66 73 65 68 73 0 68 70;
#X coords 0 127 64 0 200 127 1 0 0;
#X restore 792 27 graph;
#X obj 788 265 array set synthpitches;
#X obj 87 380 array get synthpitches;
#X floatatom 88 413 5 0 0 0 - - -;
#N canvas 1412 183 796 1276 synthsound 0;
#X obj 74 46 inlet;
#X obj 99 437 inlet;
#X obj 75 91 mtof;
#X floatatom 70 126 5 0 0 0 - - -;
#X obj 198 205 vline~;
#X obj 106 281 *~;
#X obj 58 464 *~;
#X obj 320 375 +~ 1;
#X obj 318 411 *~ 50;
#N canvas 0 50 450 250 (subpatch) 0;
#X array oscwave 100 float 1;
#A 0 0.599999 0.24 0.23 0.22 0.2 0.18 0.18 0.16 0.15 0.14 0.13 0.12
0.0999997 0.0999997 0.0999997 0.0999997 0.0999997 0.0799997 0.0699997
0.0599997 0.0499997 0.0399997 0.0399997 0.0299997 0.0199997 0.00999975
-2.38419e-007 -2.38419e-007 -2.38419e-007 -0.0066669 -0.0133336 -0.0200002
-0.0200002 -0.0200002 -0.0266669 -0.0333335 -0.0400002 -0.0500002 -0.0600002
-0.0666668 -0.0733335 -0.0800002 -0.0900002 -0.1 -0.11 -0.12 -0.12
-0.12 -0.133333 -0.146667 -0.16 -0.16 -0.16 -0.16 -0.17 -0.18 -0.18
-0.18 -0.18 -0.186667 -0.193333 -0.2 -0.21 -0.22 -0.22 -0.22 -0.22
-0.22 -0.225 -0.23 -0.235 -0.24 -0.246667 -0.253333 -0.26 -0.26 -0.26
-0.26 -0.26 -0.27 -0.28 -0.29 -0.3 -0.3 -0.3 -0.3 -0.3 -0.3 -0.308
-0.316 -0.324 -0.332 -0.34 -0.345 -0.35 -0.355 -0.36 -0.366667 -0.373333
-0.38;
#X coords 0 -1 100 1 100 100 1 0 0;
#X restore 355 278 graph;
#X obj 48 510 dac~;
#X obj 41 188 osc~;
#X obj 310 438 tabread~ oscwave;
#X obj 55 248 lop~;
#X floatatom 100 216 5 0 0 0 - - -;
#X obj 178 132 r lowpass;
#X obj 167 746 dac~;
#X floatatom 164 650 5 0 0 0 - - -;
#X obj 167 623 hsl 128 15 0 127 0 0 empty empty empty -2 -8 0 10 -262144
-1 -1 0 1;
#X obj 212 710 hsl 128 15 0 0.5 0 0 empty empty empty -2 -8 0 10 -262144
-1 -1 0 1;
#X obj 165 709 *~;
#X obj 166 589 delwrite~ del-oscwave 5000;
#X obj 164 679 delread~ del-oscwave 0;
#X obj 462 599 r delay;
#X msg 387 715 0;
#X msg 450 723 0.4;
#X obj 420 679 moses 5;
#X msg 194 172 0.3 50 \, 0 100 75;
#X connect 0 0 2 0;
#X connect 1 0 6 1;
#X connect 2 0 3 0;
#X connect 3 0 11 0;
#X connect 3 0 27 0;
#X connect 4 0 5 1;
#X connect 5 0 7 0;
#X connect 6 0 10 0;
#X connect 6 0 10 1;
#X connect 6 0 21 0;
#X connect 7 0 8 0;
#X connect 8 0 12 0;
#X connect 11 0 13 0;
#X connect 12 0 6 0;
#X connect 13 0 5 0;
#X connect 14 0 13 1;
#X connect 15 0 14 0;
#X connect 17 0 22 0;
#X connect 18 0 17 0;
#X connect 19 0 20 1;
#X connect 20 0 16 0;
#X connect 20 0 16 1;
#X connect 22 0 20 0;
#X connect 23 0 18 0;
#X connect 23 0 26 0;
#X connect 24 0 19 0;
#X connect 25 0 19 0;
#X connect 26 0 24 0;
#X connect 26 1 25 0;
#X connect 27 0 4 0;
#X restore 488 787 pd synthsound;
#X msg 399 136 0;
#X obj 399 101 r reset;
#X msg 687 180 73 75 70 78 75 73 0 75 72 0 72 68 0 72 73 68 71 63 66
71 63 66 71 63 66 73 65 68 73 66 70 78 77 75 70 78 75 73 0 75 72 0
72 68 0 72 73 68 71 63 66 71 63 66 71 63 66 73 65 68 73 0 68 70;
#X obj 81 471 spigot;
#X floatatom 494 712 5 0 0 0 - - -;
#X msg 314 534 73;
#X msg 356 534 75;
#X msg 398 532 70;
#X msg 439 534 78;
#X obj 415 410 select 73 75 70 78 72 68 71 63 66 65 77;
#X msg 489 531 72;
#X msg 545 531 68;
#X msg 592 532 71;
#X msg 630 532 63;
#X msg 671 534 66;
#X msg 716 533 65;
#X msg 753 533 77;
#X connect 0 0 1 0;
#X connect 0 0 5 0;
#X connect 1 0 2 0;
#X connect 2 0 0 1;
#X connect 3 0 10 1;
#X connect 4 0 0 0;
#X connect 5 0 8 0;
#X connect 8 0 9 0;
#X connect 9 0 14 1;
#X connect 9 0 14 0;
#X connect 11 0 0 0;
#X connect 12 0 11 0;
#X connect 13 0 7 0;
#X connect 14 0 20 0;
#X connect 15 0 10 0;
#X connect 16 0 15 0;
#X connect 17 0 15 0;
#X connect 18 0 15 0;
#X connect 19 0 15 0;
#X connect 20 0 16 0;
#X connect 20 1 17 0;
#X connect 20 2 18 0;
#X connect 20 3 19 0;
#X connect 20 4 21 0;
#X connect 20 5 22 0;
#X connect 20 6 23 0;
#X connect 20 7 24 0;
#X connect 20 8 25 0;
#X connect 20 9 26 0;
#X connect 20 10 27 0;
#X connect 21 0 15 0;
#X connect 22 0 15 0;
#X connect 23 0 15 0;
#X connect 24 0 15 0;
#X connect 25 0 15 0;
#X connect 26 0 15 0;
#X connect 27 0 15 0;
#X restore 207 506 pd synth;
#X floatatom 207 335 5 0 1.25 0 - - -;
#X obj 362 94 bng 15 250 50 0 empty empty empty 17 7 0 10 -262144 -1
-1;
#X obj 362 129 s reset;
#X floatatom 294 335 5 0 1.25 0 - - -;
#N canvas 252 244 1240 849 synth2 0;
#X obj 86 261 f;
#X obj 129 251 + 1;
#X obj 123 280 mod 64;
#X obj 213 503 inlet;
#X obj 65 231 r tempo;
#X obj 86 336 hradio 15 1 0 64 empty empty empty 0 -8 0 10 -262144
-1 -1 47;
#N canvas 0 50 450 250 (subpatch) 0;
#X array synthpitches2 64 float 3;
#A 0 0 39 0 51 0 39 0 51 0 32 0 44 0 32 0 44 0 35 0 47 0 35 0 47 0
37 0 49 0 37 0 49 0 39 0 51 0 39 0 51 0 32 0 44 0 32 0 44 0 35 0 47
0 35 0 47 0 37 0 49 0 37 0 49;
#X coords 0 127 64 0 200 127 1 0 0;
#X restore 792 27 graph;
#X floatatom 88 413 5 0 0 0 - - -;
#X msg 399 136 0;
#X obj 399 101 r reset;
#X obj 788 265 array set synthpitches2;
#X obj 87 380 array get synthpitches2;
#X obj 83 466 spigot;
#X msg 687 180 0 39 0 51 0 39 0 51 0 32 0 44 0 32 0 44 0 35 0 47 0
35 0 47 0 37 0 49 0 37 0 49 0 39 0 51 0 39 0 51 0 32 0 44 0 32 0 44
0 35 0 47 0 35 0 47 0 37 0 49 0 37 0 49;
#N canvas 1556 113 764 559 synthsound2 0;
#X obj 74 46 inlet;
#X obj 99 437 inlet;
#X obj 75 91 mtof;
#X floatatom 70 126 5 0 0 0 - - -;
#X obj 198 205 vline~;
#X obj 106 281 *~;
#X obj 56 465 *~;
#X obj 320 375 +~ 1;
#X obj 318 411 *~ 50;
#N canvas 0 50 450 250 (subpatch) 0;
#X array oscwave2 100 float 1;
#A 0 0.24 0.22 0.2 0.18 0.18 0.18 0.14 0.14 0.14 0.12 0.1 0.0800002
0.0800002 0.0700002 0.0400002 0.0400002 0.0200002 0.0200002 0.0200002
-0.0199997 -0.0199997 -0.0199997 -0.0199997 -0.0299997 -0.0399997 -0.0399997
-0.0399997 -0.0499997 -0.0599997 -0.0599997 -0.0599997 -0.0799997 -0.0799997
-0.0799997 -0.0799997 -0.0799997 -0.0999997 -0.12 -0.12 -0.12 -0.14
-0.16 -0.16 -0.16 -0.18 -0.2 -0.22 -0.22 -0.22 -0.24 -0.24 -0.24 -0.24
-0.26 -0.26 -0.26 -0.26 -0.26 -0.26 -0.26 -0.26 -0.26 -0.26 -0.279999
-0.279999 -0.279999 -0.279999 -0.279999 -0.279999 -0.299999 -0.299999
-0.299999 -0.299999 -0.299999 -0.299999 -0.299999 -0.299999 -0.299999
-0.299999 -0.299999 -0.299999 -0.319999 -0.319999 -0.319999 -0.319999
-0.319999 -0.319999 -0.319999 -0.319999 -0.319999 -0.319999 -0.319999
-0.319999 -0.319999 -0.319999 -0.319999 -0.319999 -0.319999 -0.319999
-0.319999;
#X coords 0 -1 100 1 100 100 1 0 0;
#X restore 355 278 graph;
#X obj 48 510 dac~;
#X obj 41 188 osc~;
#X msg 194 172 0.3 50 \, 0 500 250;
#X obj 310 438 tabread~ oscwave2;
#X obj 98 238 lop~;
#X floatatom 100 216 5 0 0 0 - - -;
#X obj 147 152 r lowpass;
#X obj 167 746 dac~;
#X floatatom 164 650 5 0 0 0 - - -;
#X obj 167 623 hsl 128 15 0 127 0 0 empty empty empty -2 -8 0 10 -262144
-1 -1 0 1;
#X obj 212 710 hsl 128 15 0 0.5 0 0 empty empty empty -2 -8 0 10 -262144
-1 -1 0 1;
#X obj 165 709 *~;
#X obj 462 599 r delay;
#X msg 387 715 0;
#X msg 450 723 0.4;
#X obj 420 679 moses 5;
#X obj 166 589 delwrite~ del-oscwave2 5000;
#X obj 164 679 delread~ del-oscwave2 0;
#X connect 0 0 2 0;
#X connect 1 0 6 1;
#X connect 2 0 3 0;
#X connect 3 0 11 0;
#X connect 3 0 12 0;
#X connect 4 0 5 1;
#X connect 5 0 7 0;
#X connect 6 0 10 0;
#X connect 6 0 10 1;
#X connect 6 0 26 0;
#X connect 7 0 8 0;
#X connect 8 0 13 0;
#X connect 11 0 14 0;
#X connect 12 0 4 0;
#X connect 13 0 6 0;
#X connect 14 0 5 0;
#X connect 15 0 14 1;
#X connect 16 0 15 0;
#X connect 18 0 27 0;
#X connect 19 0 18 0;
#X connect 20 0 21 1;
#X connect 21 0 17 0;
#X connect 21 0 17 1;
#X connect 22 0 19 0;
#X connect 22 0 25 0;
#X connect 23 0 20 0;
#X connect 24 0 20 0;
#X connect 25 0 23 0;
#X connect 25 1 24 0;
#X connect 27 0 21 0;
#X restore 125 546 pd synthsound2;
#X connect 0 0 1 0;
#X connect 0 0 5 0;
#X connect 1 0 2 0;
#X connect 2 0 0 1;
#X connect 3 0 14 1;
#X connect 4 0 0 0;
#X connect 5 0 11 0;
#X connect 7 0 12 1;
#X connect 7 0 12 0;
#X connect 8 0 0 0;
#X connect 9 0 8 0;
#X connect 11 0 7 0;
#X connect 12 0 14 0;
#X connect 13 0 10 0;
#X restore 294 506 pd synth2;
#X floatatom 392 336 5 0 1.25 0 - - -;
#X floatatom 479 335 5 0 1.25 0 - - -;
#N canvas 1718 212 665 527 kick 0;
#X obj 86 261 f;
#X obj 129 251 + 1;
#X obj 65 231 r tempo;
#X msg 207 148 0;
#X obj 207 113 r reset;
#X obj 87 318 hradio 15 1 0 4 empty empty empty 0 -8 0 10 -262144 -1
-1 3;
#X floatatom 86 394 5 0 0 0 - - -;
#N canvas 0 50 450 250 (subpatch) 0;
#X array kick1 4 float 3;
#A 0 1 0 0 0;
#X coords 0 1 4 0 200 127 1 0 0;
#X restore 336 59 graph;
#X obj 365 293 array set kick1;
#X obj 86 364 array get kick1;
#X obj 123 280 mod 4;
#X obj 177 406 inlet;
#N canvas 1936 696 450 434 kick1 0;
#X obj 121 52 inlet;
#X obj 316 228 inlet;
#X obj 119 91 bng 15 250 50 0 empty empty empty 17 7 0 10 -262144 -1
-1;
#X msg 118 134 150 \, 50 70 0;
#X obj 118 168 vline~;
#X obj 119 203 osc~;
#X obj 204 194 vline~;
#X obj 175 235 *~;
#X obj 190 281 *~;
#X obj 184 327 dac~;
#X msg 242 156 0.5 1 0 \, 0 100 1;
#X obj 250 309 env~;
#X obj 248 338 - 100;
#X obj 227 389 s vukick;
#X connect 0 0 2 0;
#X connect 1 0 8 1;
#X connect 2 0 3 0;
#X connect 2 0 10 0;
#X connect 3 0 4 0;
#X connect 4 0 5 0;
#X connect 5 0 7 0;
#X connect 6 0 7 1;
#X connect 7 0 8 0;
#X connect 8 0 9 1;
#X connect 8 0 9 0;
#X connect 8 0 11 0;
#X connect 10 0 6 0;
#X connect 11 0 12 0;
#X connect 12 0 13 0;
#X restore 76 478 pd kick1;
#X obj 81 442 spigot;
#X msg 193 324 1;
#X msg 367 238 1 0 0 0;
#X connect 0 0 1 0;
#X connect 0 0 5 0;
#X connect 1 0 10 0;
#X connect 2 0 0 0;
#X connect 3 0 0 0;
#X connect 4 0 3 0;
#X connect 5 0 9 0;
#X connect 6 0 13 0;
#X connect 6 0 13 1;
#X connect 9 0 6 0;
#X connect 10 0 0 1;
#X connect 11 0 12 1;
#X connect 13 0 12 0;
#X connect 14 0 9 1;
#X connect 15 0 8 0;
#X restore 392 506 pd kick;
#N canvas 1674 183 650 448 snare 0;
#X obj 83 181 f;
#X obj 126 171 + 1;
#X obj 62 151 r tempo;
#X msg 204 68 0;
#X obj 204 33 r reset;
#X obj 387 214 array set snarehat;
#N canvas 0 50 450 250 (subpatch) 0;
#X array snarehat 8 float 3;
#A 0 0 0 0 1 0 2 0 1;
#X coords 0 2 8 0 200 127 1 0 0;
#X restore 338 32 graph;
#X obj 69 237 hradio 15 1 0 8 empty empty empty 0 -8 0 10 -262144 -1
-1 7;
#X obj 68 266 array get snarehat;
#X floatatom 69 299 5 0 0 0 - - -;
#X obj 120 200 mod 8;
#X obj 67 333 select 1 2;
#N canvas 1113 196 450 455 snare1 0;
#X obj 226 95 inlet;
#X obj 288 376 inlet;
#X obj 147 370 *~;
#X obj 146 406 *~;
#X obj 143 451 dac~;
#X obj 85 220 noise~;
#X obj 74 249 lop~ 3000;
#X obj 75 284 hip~ 1000;
#X obj 152 295 osc~ 180;
#X obj 153 321 *~ 0.5;
#X obj 238 176 vline~;
#X obj 237 215 *~;
#X msg 228 138 0.6 1 0 \, 0 150 1;
#X obj 263 406 env~;
#X obj 261 435 - 100;
#X obj 240 486 s vusnare;
#X connect 0 0 12 0;
#X connect 1 0 3 1;
#X connect 2 0 3 0;
#X connect 3 0 4 1;
#X connect 3 0 4 0;
#X connect 3 0 13 0;
#X connect 5 0 6 0;
#X connect 6 0 7 0;
#X connect 7 0 2 0;
#X connect 8 0 9 0;
#X connect 9 0 2 0;
#X connect 10 0 11 1;
#X connect 10 0 11 0;
#X connect 11 0 2 1;
#X connect 12 0 10 0;
#X connect 13 0 14 0;
#X connect 14 0 15 0;
#X restore 116 373 pd snare1;
#N canvas 786 148 450 193 hat1 0;
#X obj 110 36 inlet;
#X obj 287 172 inlet;
#X obj 60 66 noise~;
#X obj 80 182 *~;
#X obj 104 225 *~;
#X obj 174 118 vline~;
#X obj 105 254 dac~;
#X obj 64 143 hip~ 10000;
#X obj 63 107 hip~ 2000;
#X msg 171 79 0.35 \, 0 100 1;
#X obj 202 233 env~;
#X obj 200 262 - 100;
#X obj 179 314 s vusnare;
#X connect 0 0 9 0;
#X connect 1 0 4 1;
#X connect 2 0 8 0;
#X connect 3 0 4 0;
#X connect 4 0 6 1;
#X connect 4 0 6 0;
#X connect 4 0 10 0;
#X connect 5 0 3 1;
#X connect 7 0 3 0;
#X connect 8 0 7 0;
#X connect 9 0 5 0;
#X connect 10 0 11 0;
#X connect 11 0 12 0;
#X restore 20 383 pd hat1;
#X obj 252 337 inlet;
#X msg 387 178 0 0 0 1 0 2 0 1;
#X connect 0 0 1 0;
#X connect 0 0 7 0;
#X connect 1 0 10 0;
#X connect 2 0 0 0;
#X connect 3 0 0 0;
#X connect 4 0 3 0;
#X connect 7 0 8 0;
#X connect 8 0 9 0;
#X connect 9 0 11 0;
#X connect 10 0 0 1;
#X connect 11 0 13 0;
#X connect 11 1 12 0;
#X connect 14 0 12 1;
#X connect 14 0 13 1;
#X connect 15 0 5 0;
#X restore 479 505 pd snare;
#X obj 567 357 vu 15 120 empty empty -1 -8 0 10 -66577 -1 1 0;
#X obj 653 357 vu 15 120 empty empty -1 -8 0 10 -66577 -1 1 0;
#X obj 207 358 vsl 15 128 0 1.25 0 0 empty empty empty 0 -9 0 10 -261234
-1 -1 10160 1;
#X obj 294 358 vsl 15 128 0 1.25 0 0 empty empty empty 0 -9 0 10 -261234
-1 -1 10160 1;
#X obj 392 358 vsl 15 128 0 1.25 0 0 empty empty empty 0 -9 0 10 -261234
-1 -1 10160 1;
#X obj 479 358 vsl 15 128 0 1.25 0 0 empty empty empty 0 -9 0 10 -261234
-1 -1 10160 1;
#X obj 566 318 r vukick;
#X obj 652 317 r vusnare;
#X obj 128 286 loadbang;
#X msg 128 317 1;
#X obj 456 187 s lowpass;
#X floatatom 456 162 5 0 0 0 - - -;
#X msg 484 129 10000;
#X msg 437 129 75;
#X floatatom 620 163 5 0 0 0 - - -;
#X obj 620 186 s delay;
#X msg 639 129 0;
#X msg 597 129 95;
#X obj 453 92 loadbang;
#X text 331 253 MUSIC CONTROL;
#X msg 270 125 100;
#X connect 1 0 0 0;
#X connect 4 0 9 0;
#X connect 5 0 4 0;
#X connect 7 0 4 1;
#X connect 8 0 40 0;
#X connect 11 0 22 0;
#X connect 12 0 13 0;
#X connect 14 0 23 0;
#X connect 16 0 24 0;
#X connect 17 0 25 0;
#X connect 22 0 10 0;
#X connect 23 0 15 0;
#X connect 24 0 18 0;
#X connect 25 0 19 0;
#X connect 26 0 20 0;
#X connect 27 0 21 0;
#X connect 28 0 29 0;
#X connect 29 0 11 0;
#X connect 29 0 14 0;
#X connect 29 0 16 0;
#X connect 29 0 17 0;
#X connect 31 0 30 0;
#X connect 32 0 31 0;
#X connect 33 0 31 0;
#X connect 34 0 35 0;
#X connect 36 0 34 0;
#X connect 37 0 34 0;
#X connect 38 0 32 0;
#X connect 40 0 7 0;
